<?xml version="1.0" encoding="utf-8"?>
<!-- Generator: Adobe Illustrator 16.0.0, SVG Export Plug-In . SVG Version: 6.00 Build 0)  -->
<!DOCTYPE svg PUBLIC "-//W3C//DTD SVG 1.1//EN" "http://www.w3.org/Graphics/SVG/1.1/DTD/svg11.dtd">
<svg version="1.1" id="Layer_1" xmlns="http://www.w3.org/2000/svg" xmlns:xlink="http://www.w3.org/1999/xlink" x="0px" y="0px"
	 width="83.333px" height="83.334px" viewBox="0 0 83.333 83.334" enable-background="new 0 0 83.333 83.334" xml:space="preserve">
<path fill="#FFFFFF" d="M69.445,0H13.891C6.251,0,0,6.25,0,13.892v55.552c0,7.646,6.251,13.891,13.889,13.891h55.556
	c7.641,0.001,13.889-6.245,13.889-13.891V13.893C83.333,6.252,77.085,0.001,69.445,0L69.445,0z M70.849,41.667H57.292v36.459H41.667
	V41.667h-7.53V29.74h7.53v-7.747c0-10.526,4.539-16.786,16.916-16.786h14.263v12.906H61.197c-3.457-0.007-3.886,1.802-3.886,5.168
	l-0.021,6.457h15.627L70.849,41.667L70.849,41.667L70.849,41.667z"/>
</svg>
