<?xml version="1.0" encoding="utf-8"?>
<!-- Generator: Adobe Illustrator 16.0.0, SVG Export Plug-In . SVG Version: 6.00 Build 0)  -->
<!DOCTYPE svg PUBLIC "-//W3C//DTD SVG 1.1//EN" "http://www.w3.org/Graphics/SVG/1.1/DTD/svg11.dtd">
<svg version="1.1" xmlns="http://www.w3.org/2000/svg" xmlns:xlink="http://www.w3.org/1999/xlink" x="0px" y="0px" width="1600px"
	 height="900px" viewBox="0 0 1600 900" enable-background="new 0 0 1600 900" xml:space="preserve">
<g id="Layer_2" display="none">
	<rect display="inline" fill="#C6C6C5" width="1600" height="900"/>
</g>
<g id="Layer_1">
	<g id="Hands" display="none">
		<g display="inline">
			<path fill="#F4F3B4" d="M552.055,636.521v-28.679c-0.024-0.166-0.039-0.335-0.039-0.506c0-2.496,2.585-4.521,5.774-4.521
				s5.774,2.024,5.774,4.521c0,0.171-0.015,0.34-0.038,0.506v28.373l1.262-0.345v-33.25c-0.024-0.196-0.039-0.396-0.039-0.598
				c0-2.951,2.585-5.343,5.774-5.343s5.774,2.392,5.774,5.343c0,0.202-0.015,0.401-0.039,0.598v32.447l1.377,0.058v-38.617
				c-0.024-0.232-0.039-0.467-0.039-0.706c0-3.482,2.585-6.306,5.774-6.306s5.774,2.823,5.774,6.306
				c0,0.239-0.015,0.474-0.039,0.706l0.039,39.362l1.338,0.65v-35.357c-0.024-0.205-0.039-0.412-0.039-0.623
				c0-3.078,2.585-5.572,5.774-5.572s5.774,2.494,5.774,5.572c0,0.211-0.015,0.418-0.039,0.623v41.361l11.683-10.727
				c0,0,3.097-3.098,6.424,0.229l2.495,2.495c0,0,0.495,0.38-0.574,1.448c0,0-5.904,6.728-11.767,13.725
				c-3.305,3.943-6.846,8.432-6.999,10.878c0,0-2.294,12.39-4.092,20.382H553.47c0,0-2.008,0.401-2.008-5.449
				C551.462,675.506,550.181,649.79,552.055,636.521z"/>
			<rect x="550.067" y="680.961" fill="#E5E5E5" width="51.853" height="7.145"/>
			<rect x="546.854" y="688.149" fill="#7C79B7" width="58.278" height="54.257"/>
			<circle fill="#595991" cx="552.667" cy="696.061" r="2.6"/>
			<circle fill="#595991" cx="552.514" cy="703.556" r="2.6"/>
			<circle fill="#FFFFFF" cx="557.715" cy="608.567" r="5.2"/>
			<circle fill="#FFFFFF" cx="570.563" cy="602.602" r="5.2"/>
			<circle fill="#FFFFFF" cx="583.412" cy="595.03" r="5.201"/>
			<circle fill="#FFFFFF" cx="596.241" cy="600.767" r="5.201"/>
			<path fill="#FFFFFF" d="M616.221,642.418l6.294-7.208c-0.84-0.639-1.901-1.022-3.058-1.022c-2.715,0-4.917,2.104-4.917,4.698
				C614.539,640.296,615.192,641.557,616.221,642.418z"/>
		</g>
		<g display="inline">
			<path fill="#F4F3B4" d="M786.713,636.521v-28.679c0.024-0.166,0.038-0.335,0.038-0.506c0-2.496-2.585-4.521-5.774-4.521
				s-5.774,2.024-5.774,4.521c0,0.171,0.015,0.34,0.039,0.506v28.373l-1.262-0.345v-33.25c0.024-0.196,0.039-0.396,0.039-0.598
				c0-2.951-2.585-5.343-5.774-5.343s-5.774,2.392-5.774,5.343c0,0.202,0.015,0.401,0.038,0.598v32.447l-1.376,0.058v-38.617
				c0.024-0.232,0.039-0.467,0.039-0.706c0-3.482-2.585-6.306-5.774-6.306s-5.774,2.823-5.774,6.306
				c0,0.239,0.015,0.474,0.039,0.706l-0.039,39.362l-1.338,0.65v-35.357c0.024-0.205,0.039-0.412,0.039-0.623
				c0-3.078-2.585-5.572-5.774-5.572s-5.774,2.494-5.774,5.572c0,0.211,0.015,0.418,0.039,0.623v41.361l-11.683-10.727
				c0,0-3.097-3.098-6.424,0.229l-2.495,2.495c0,0-0.495,0.38,0.574,1.448c0,0,5.904,6.728,11.767,13.725
				c3.305,3.943,6.846,8.432,6.999,10.878c0,0,2.294,12.39,4.092,20.382h45.658c0,0,2.008,0.401,2.008-5.449
				C787.306,675.506,788.587,649.79,786.713,636.521z"/>
			<rect x="736.848" y="680.961" fill="#E5E5E5" width="51.853" height="7.145"/>
			<rect x="733.636" y="688.149" fill="#7C79B7" width="58.278" height="54.257"/>
			<circle fill="#595991" cx="786.101" cy="696.061" r="2.6"/>
			<circle fill="#595991" cx="786.254" cy="703.556" r="2.6"/>
			<circle fill="#FFFFFF" cx="781.053" cy="608.567" r="5.2"/>
			<circle fill="#FFFFFF" cx="768.205" cy="602.602" r="5.2"/>
			<circle fill="#FFFFFF" cx="755.356" cy="595.03" r="5.2"/>
			<circle fill="#FFFFFF" cx="742.527" cy="600.767" r="5.201"/>
			<path fill="#FFFFFF" d="M722.547,642.418l-6.294-7.208c0.839-0.639,1.901-1.022,3.058-1.022c2.715,0,4.917,2.104,4.917,4.698
				C724.229,640.296,723.576,641.557,722.547,642.418z"/>
		</g>
	</g>
	<g>
		<g id="Pencil">
			<path fill="#D3D3D3" d="M277.873,715.596c-3.64,0-6.596-0.151-6.596-9.052V556.868h13.191v149.676
				C284.469,715.444,281.52,715.596,277.873,715.596z"/>
			<polygon fill="#FAC3C2" points="271.277,556.871 277.873,529.084 284.469,556.871 			"/>
			<polygon fill="#3F403F" points="279.272,534.978 277.873,529.084 276.475,534.978 			"/>
			<path fill="#898989" d="M284.469,706.544V556.868h-6.596v158.728C281.52,715.596,284.469,715.444,284.469,706.544z"/>
		</g>
		<g id="Pad">
			<g id="Notepad">
				<path fill="#FFFFFF" d="M467.915,722.342c0,3.85-3.15,7-7,7H312.219c-3.85,0-7-3.15-7-7V521.071c0-3.85,3.15-7,7-7h148.696
					c3.85,0,7,3.15,7,7V722.342z"/>
				<path fill="none" stroke="#9B9A9A" stroke-width="3" stroke-miterlimit="10" d="M467.915,722.342c0,3.85-3.15,7-7,7H312.219
					c-3.85,0-7-3.15-7-7V521.071c0-3.85,3.15-7,7-7h148.696c3.85,0,7,3.15,7,7V722.342z"/>
			</g>
			<g id="Spiral">
				<path fill="#707071" d="M321.503,517.423c0,1.157-0.938,2.096-2.096,2.096l0,0c-1.157,0-2.095-0.938-2.095-2.096v-6.703
					c0-1.157,0.938-2.096,2.095-2.096l0,0c1.157,0,2.096,0.938,2.096,2.096V517.423z"/>
				<path fill="#707071" d="M329.882,517.423c0,1.157-0.938,2.096-2.095,2.096l0,0c-1.156,0-2.095-0.938-2.095-2.096v-6.703
					c0-1.157,0.938-2.096,2.095-2.096l0,0c1.157,0,2.095,0.938,2.095,2.096V517.423z"/>
				<path fill="#707071" d="M338.263,517.423c0,1.157-0.938,2.096-2.095,2.096l0,0c-1.157,0-2.096-0.938-2.096-2.096v-6.703
					c0-1.157,0.938-2.096,2.096-2.096l0,0c1.156,0,2.095,0.938,2.095,2.096V517.423z"/>
				<path fill="#707071" d="M346.643,517.423c0,1.157-0.938,2.096-2.095,2.096l0,0c-1.157,0-2.095-0.938-2.095-2.096v-6.703
					c0-1.157,0.938-2.096,2.095-2.096l0,0c1.157,0,2.095,0.938,2.095,2.096V517.423z"/>
				<path fill="#707071" d="M355.023,517.423c0,1.157-0.938,2.096-2.096,2.096l0,0c-1.156,0-2.095-0.938-2.095-2.096v-6.703
					c0-1.157,0.938-2.096,2.095-2.096l0,0c1.157,0,2.096,0.938,2.096,2.096V517.423z"/>
				<path fill="#707071" d="M363.403,517.423c0,1.157-0.938,2.096-2.095,2.096l0,0c-1.157,0-2.096-0.938-2.096-2.096v-6.703
					c0-1.157,0.938-2.096,2.096-2.096l0,0c1.156,0,2.095,0.938,2.095,2.096V517.423z"/>
				<path fill="#707071" d="M371.783,517.423c0,1.157-0.938,2.096-2.095,2.096l0,0c-1.157,0-2.095-0.938-2.095-2.096v-6.703
					c0-1.157,0.938-2.096,2.095-2.096l0,0c1.157,0,2.095,0.938,2.095,2.096V517.423z"/>
				<path fill="#707071" d="M380.164,517.423c0,1.157-0.938,2.096-2.096,2.096l0,0c-1.156,0-2.095-0.938-2.095-2.096v-6.703
					c0-1.157,0.938-2.096,2.095-2.096l0,0c1.157,0,2.096,0.938,2.096,2.096V517.423z"/>
				<path fill="#707071" d="M388.544,517.423c0,1.157-0.938,2.096-2.095,2.096l0,0c-1.157,0-2.096-0.938-2.096-2.096v-6.703
					c0-1.157,0.938-2.096,2.096-2.096l0,0c1.156,0,2.095,0.938,2.095,2.096V517.423z"/>
				<path fill="#707071" d="M396.85,517.423c0,1.157-0.938,2.096-2.095,2.096l0,0c-1.157,0-2.095-0.938-2.095-2.096v-6.703
					c0-1.157,0.938-2.096,2.095-2.096l0,0c1.157,0,2.095,0.938,2.095,2.096V517.423z"/>
				<path fill="#707071" d="M405.23,517.423c0,1.157-0.938,2.096-2.096,2.096l0,0c-1.156,0-2.095-0.938-2.095-2.096v-6.703
					c0-1.157,0.938-2.096,2.095-2.096l0,0c1.157,0,2.096,0.938,2.096,2.096V517.423z"/>
				<path fill="#707071" d="M413.61,517.423c0,1.157-0.938,2.096-2.095,2.096l0,0c-1.157,0-2.096-0.938-2.096-2.096v-6.703
					c0-1.157,0.938-2.096,2.096-2.096l0,0c1.156,0,2.095,0.938,2.095,2.096V517.423z"/>
				<path fill="#707071" d="M421.99,517.423c0,1.157-0.938,2.096-2.095,2.096l0,0c-1.157,0-2.095-0.938-2.095-2.096v-6.703
					c0-1.157,0.938-2.096,2.095-2.096l0,0c1.157,0,2.095,0.938,2.095,2.096V517.423z"/>
				<path fill="#707071" d="M430.371,517.423c0,1.157-0.938,2.096-2.096,2.096l0,0c-1.156,0-2.095-0.938-2.095-2.096v-6.703
					c0-1.157,0.938-2.096,2.095-2.096l0,0c1.157,0,2.096,0.938,2.096,2.096V517.423z"/>
				<path fill="#707071" d="M438.751,517.423c0,1.157-0.938,2.096-2.095,2.096l0,0c-1.157,0-2.096-0.938-2.096-2.096v-6.703
					c0-1.157,0.938-2.096,2.096-2.096l0,0c1.156,0,2.095,0.938,2.095,2.096V517.423z"/>
				<path fill="#707071" d="M447.131,517.423c0,1.157-0.938,2.096-2.095,2.096l0,0c-1.157,0-2.095-0.938-2.095-2.096v-6.703
					c0-1.157,0.938-2.096,2.095-2.096l0,0c1.157,0,2.095,0.938,2.095,2.096V517.423z"/>
				<path fill="#707071" d="M455.512,517.423c0,1.157-0.938,2.096-2.096,2.096l0,0c-1.156,0-2.095-0.938-2.095-2.096v-6.703
					c0-1.157,0.938-2.096,2.095-2.096l0,0c1.157,0,2.096,0.938,2.096,2.096V517.423z"/>
			</g>
			<g id="Wireframe">
				<rect x="322.272" y="719.869" fill="#D3D3D3" width="57.196" height="2.605"/>
				<rect x="322.272" y="723.066" fill="#D3D3D3" width="23.088" height="2.605"/>
				<rect x="394.859" y="719.869" fill="#D3D3D3" width="37.533" height="2.605"/>
				<circle fill="#D3D3D3" cx="387.022" cy="554.432" r="14.11"/>
				<rect x="324.419" y="579.435" fill="#D3D3D3" width="31.425" height="7.104"/>
				<rect x="371.31" y="579.435" fill="#D3D3D3" width="31.425" height="7.104"/>
				<rect x="417.29" y="579.435" fill="#D3D3D3" width="31.426" height="7.104"/>
				<rect x="306.403" y="596.011" fill="#E8E8E8" width="160.328" height="62.759"/>
				<rect x="343.484" y="608.326" fill="#D3D3D3" width="81.093" height="9.946"/>
				<rect x="322.039" y="667.38" fill="#D3D3D3" width="57.664" height="47.602"/>
				<rect x="394.743" y="667.38" fill="#D3D3D3" width="57.664" height="47.602"/>
				<rect x="335.059" y="626.799" fill="#D3D3D3" width="97.944" height="3.788"/>
				<rect x="322.272" y="716.791" fill="#D3D3D3" width="57.196" height="2.605"/>
				<rect x="394.859" y="716.791" fill="#D3D3D3" width="57.195" height="2.605"/>
				<rect x="335.059" y="632.719" fill="#D3D3D3" width="41.207" height="3.789"/>
			</g>
		</g>
		<g>
			<g id="Keyboard">
				<g>
					<path fill="#D6D6D6" d="M530.464,720.287c0,3.313,2.687,6,6,6h464.884c3.313,0,6-2.687,6-6V524.392c0-3.313-2.687-6-6-6
						H536.464c-3.313,0-6,2.687-6,6V720.287z"/>
				</g>
				<path fill="#A9A8A8" d="M1001.348,518.392h-88.283L530.464,707.767v12.521c0,3.313,2.686,6,6,6h464.884c3.313,0,6-2.687,6-6
					V524.392C1007.348,521.078,1004.66,518.392,1001.348,518.392z"/>
				<g id="Keys">
					<g>
						<g>
							<path fill="#FFFFFF" d="M543.436,562.594c0,1.104,0.896,2,2,2h24.783c1.104,0,2-0.896,2-2v-10.105c0-1.104-0.896-2-2-2
								h-24.783c-1.104,0-2,0.896-2,2V562.594z"/>
						</g>
						<g>
							<path fill="#FFFFFF" d="M576.33,562.594c0,1.104,0.896,2,2,2h24.783c1.104,0,2-0.896,2-2v-10.105c0-1.104-0.896-2-2-2H578.33
								c-1.104,0-2,0.896-2,2V562.594z"/>
						</g>
						<g>
							<path fill="#FFFFFF" d="M608.313,562.594c0,1.104,0.896,2,2,2h24.782c1.104,0,2-0.896,2-2v-10.105c0-1.104-0.896-2-2-2
								h-24.782c-1.104,0-2,0.896-2,2V562.594z"/>
						</g>
						<g>
							<path fill="#FFFFFF" d="M641.207,562.594c0,1.104,0.896,2,2,2h24.784c1.104,0,2-0.896,2-2v-10.105c0-1.104-0.896-2-2-2
								h-24.784c-1.104,0-2,0.896-2,2V562.594z"/>
						</g>
						<g>
							<path fill="#FFFFFF" d="M673.646,562.928c0,1.104,0.896,2,2,2h24.783c1.104,0,2-0.896,2-2v-10.105c0-1.104-0.896-2-2-2
								h-24.783c-1.104,0-2,0.896-2,2V562.928z"/>
						</g>
						<g>
							<path fill="#FFFFFF" d="M706.54,562.928c0,1.104,0.896,2,2,2h24.784c1.104,0,2-0.896,2-2v-10.105c0-1.104-0.896-2-2-2H708.54
								c-1.104,0-2,0.896-2,2V562.928z"/>
						</g>
						<g>
							<path fill="#FFFFFF" d="M738.521,562.928c0,1.104,0.896,2,2,2h24.784c1.104,0,2-0.896,2-2v-10.105c0-1.104-0.896-2-2-2
								h-24.784c-1.104,0-2,0.896-2,2V562.928z"/>
						</g>
						<g>
							<path fill="#FFFFFF" d="M771.418,562.928c0,1.104,0.896,2,2,2h24.783c1.104,0,2-0.896,2-2v-10.105c0-1.104-0.896-2-2-2
								h-24.783c-1.104,0-2,0.896-2,2V562.928z"/>
						</g>
						<g>
							<path fill="#FFFFFF" d="M803.398,562.594c0,1.104,0.896,2,2,2h24.783c1.104,0,2-0.896,2-2v-10.105c0-1.104-0.896-2-2-2
								h-24.783c-1.104,0-2,0.896-2,2V562.594z"/>
						</g>
						<g>
							<path fill="#FFFFFF" d="M836.293,562.594c0,1.104,0.896,2,2,2h24.785c1.104,0,2-0.896,2-2v-10.105c0-1.104-0.896-2-2-2
								h-24.785c-1.104,0-2,0.896-2,2V562.594z"/>
						</g>
						<g>
							<path fill="#FFFFFF" d="M868.275,562.594c0,1.104,0.896,2,2,2h24.785c1.104,0,2-0.896,2-2v-10.105c0-1.104-0.896-2-2-2
								h-24.785c-1.104,0-2,0.896-2,2V562.594z"/>
						</g>
						<g>
							<path fill="#FFFFFF" d="M901.172,562.594c0,1.104,0.896,2,2,2h24.781c1.104,0,2-0.896,2-2v-10.105c0-1.104-0.896-2-2-2
								h-24.781c-1.104,0-2,0.896-2,2V562.594z"/>
						</g>
						<g>
							<path fill="#FFFFFF" d="M933.609,562.928c0,1.104,0.896,2,2,2h24.783c1.104,0,2-0.896,2-2v-10.105c0-1.104-0.896-2-2-2
								h-24.783c-1.104,0-2,0.896-2,2V562.928z"/>
						</g>
						<g>
							<path fill="#FFFFFF" d="M966.504,562.928c0,1.104,0.896,2,2,2h24.785c1.104,0,2-0.896,2-2v-10.105c0-1.104-0.896-2-2-2
								h-24.785c-1.104,0-2,0.896-2,2V562.928z"/>
						</g>
					</g>
					<g>
						<g>
							<path fill="#FFFFFF" d="M543.436,593.767c0,1.104,0.896,2,2,2h23.729c1.104,0,2-0.896,2-2v-22.766c0-1.104-0.896-2-2-2
								h-23.729c-1.104,0-2,0.896-2,2V593.767z"/>
						</g>
						<g>
							<path fill="#FFFFFF" d="M575.126,593.767c0,1.104,0.896,2,2,2h23.728c1.104,0,2-0.896,2-2v-22.766c0-1.104-0.896-2-2-2
								h-23.728c-1.104,0-2,0.896-2,2V593.767z"/>
						</g>
						<g>
							<path fill="#FFFFFF" d="M605.935,593.767c0,1.104,0.896,2,2,2h23.729c1.104,0,2-0.896,2-2v-22.766c0-1.104-0.896-2-2-2
								h-23.729c-1.104,0-2,0.896-2,2V593.767z"/>
						</g>
						<g>
							<path fill="#FFFFFF" d="M637.624,593.767c0,1.104,0.896,2,2,2h23.731c1.104,0,2-0.896,2-2v-22.766c0-1.104-0.896-2-2-2
								h-23.731c-1.104,0-2,0.896-2,2V593.767z"/>
						</g>
						<g>
							<path fill="#FFFFFF" d="M668.876,593.767c0,1.104,0.896,2,2,2h23.728c1.104,0,2-0.896,2-2v-22.766c0-1.104-0.896-2-2-2
								h-23.728c-1.104,0-2,0.896-2,2V593.767z"/>
						</g>
						<g>
							<path fill="#FFFFFF" d="M700.564,593.767c0,1.104,0.896,2,2,2h23.729c1.104,0,2-0.896,2-2v-22.766c0-1.104-0.896-2-2-2
								h-23.729c-1.104,0-2,0.896-2,2V593.767z"/>
						</g>
						<g>
							<path fill="#FFFFFF" d="M731.375,593.767c0,1.104,0.896,2,2,2h23.729c1.104,0,2-0.896,2-2v-22.766c0-1.104-0.896-2-2-2
								h-23.729c-1.104,0-2,0.896-2,2V593.767z"/>
						</g>
						<g>
							<path fill="#FFFFFF" d="M763.064,593.767c0,1.104,0.896,2,2,2h23.73c1.104,0,2-0.896,2-2v-22.766c0-1.104-0.896-2-2-2h-23.73
								c-1.104,0-2,0.896-2,2V593.767z"/>
						</g>
						<g>
							<path fill="#FFFFFF" d="M793.875,593.767c0,1.104,0.896,2,2,2h23.728c1.104,0,2-0.896,2-2v-22.766c0-1.104-0.896-2-2-2
								h-23.728c-1.104,0-2,0.896-2,2V593.767z"/>
						</g>
						<g>
							<path fill="#FFFFFF" d="M825.564,593.767c0,1.104,0.896,2,2,2h23.73c1.104,0,2-0.896,2-2v-22.766c0-1.104-0.896-2-2-2h-23.73
								c-1.104,0-2,0.896-2,2V593.767z"/>
						</g>
						<g>
							<path fill="#FFFFFF" d="M856.375,593.767c0,1.104,0.896,2,2,2h23.73c1.104,0,2-0.896,2-2v-22.766c0-1.104-0.896-2-2-2h-23.73
								c-1.104,0-2,0.896-2,2V593.767z"/>
						</g>
						<g>
							<path fill="#FFFFFF" d="M888.064,593.767c0,1.104,0.896,2,2,2h23.73c1.104,0,2-0.896,2-2v-22.766c0-1.104-0.896-2-2-2h-23.73
								c-1.104,0-2,0.896-2,2V593.767z"/>
						</g>
						<g>
							<path fill="#FFFFFF" d="M919.314,593.767c0,1.104,0.896,2,2,2h23.73c1.104,0,2-0.896,2-2v-22.133c0-1.104-0.896-2-2-2h-23.73
								c-1.104,0-2,0.896-2,2V593.767z"/>
						</g>
						<g>
							<path fill="#FFFFFF" d="M950.197,593.767c0,1.104,0.896,2,2,2h41.092c1.104,0,2-0.896,2-2v-22.133c0-1.104-0.896-2-2-2
								h-41.092c-1.104,0-2,0.896-2,2V593.767z"/>
						</g>
					</g>
					<g>
						<g>
							<path fill="#FFFFFF" d="M592.071,624.375c0,1.104,0.896,2,2,2h23.729c1.104,0,2-0.896,2-2v-22.766c0-1.104-0.896-2-2-2
								h-23.729c-1.104,0-2,0.896-2,2V624.375z"/>
						</g>
						<g>
							<path fill="#FFFFFF" d="M623.762,624.375c0,1.104,0.896,2,2,2h23.728c1.104,0,2-0.896,2-2v-22.766c0-1.104-0.896-2-2-2
								h-23.728c-1.104,0-2,0.896-2,2V624.375z"/>
						</g>
						<g>
							<path fill="#FFFFFF" d="M654.571,624.375c0,1.104,0.896,2,2,2H680.3c1.104,0,2-0.896,2-2v-22.766c0-1.104-0.896-2-2-2
								h-23.729c-1.104,0-2,0.896-2,2V624.375z"/>
						</g>
						<g>
							<path fill="#FFFFFF" d="M686.261,624.375c0,1.104,0.896,2,2,2h23.729c1.104,0,2-0.896,2-2v-22.766c0-1.104-0.896-2-2-2
								h-23.729c-1.104,0-2,0.896-2,2V624.375z"/>
						</g>
						<g>
							<path fill="#FFFFFF" d="M717.511,624.375c0,1.104,0.896,2,2,2h23.729c1.104,0,2-0.896,2-2v-22.766c0-1.104-0.896-2-2-2
								h-23.729c-1.104,0-2,0.896-2,2V624.375z"/>
						</g>
						<g>
							<path fill="#FFFFFF" d="M749.201,624.375c0,1.104,0.896,2,2,2h23.729c1.104,0,2-0.896,2-2v-22.766c0-1.104-0.896-2-2-2
								h-23.729c-1.104,0-2,0.896-2,2V624.375z"/>
						</g>
						<g>
							<path fill="#FFFFFF" d="M780.011,624.375c0,1.104,0.896,2,2,2h23.729c1.104,0,2-0.896,2-2v-22.766c0-1.104-0.896-2-2-2
								h-23.729c-1.104,0-2,0.896-2,2V624.375z"/>
						</g>
						<g>
							<path fill="#FFFFFF" d="M811.7,624.375c0,1.104,0.896,2,2,2h23.73c1.104,0,2-0.896,2-2v-22.766c0-1.104-0.896-2-2-2H813.7
								c-1.104,0-2,0.896-2,2V624.375z"/>
						</g>
						<g>
							<path fill="#FFFFFF" d="M842.511,624.375c0,1.104,0.896,2,2,2h23.728c1.104,0,2-0.896,2-2v-22.766c0-1.104-0.896-2-2-2
								h-23.728c-1.104,0-2,0.896-2,2V624.375z"/>
						</g>
						<g>
							<path fill="#FFFFFF" d="M874.201,624.375c0,1.104,0.896,2,2,2h23.729c1.104,0,2-0.896,2-2v-22.766c0-1.104-0.896-2-2-2
								h-23.729c-1.104,0-2,0.896-2,2V624.375z"/>
						</g>
						<g>
							<path fill="#FFFFFF" d="M905.01,624.375c0,1.104,0.896,2,2,2h23.73c1.104,0,2-0.896,2-2v-22.766c0-1.104-0.896-2-2-2h-23.73
								c-1.104,0-2,0.896-2,2V624.375z"/>
						</g>
						<g>
							<path fill="#FFFFFF" d="M936.701,624.375c0,1.104,0.896,2,2,2h23.73c1.104,0,2-0.896,2-2v-22.766c0-1.104-0.896-2-2-2h-23.73
								c-1.104,0-2,0.896-2,2V624.375z"/>
						</g>
						<g>
							<path fill="#FFFFFF" d="M967.951,624.058c0,1.104,0.896,2,2,2h23.729c1.104,0,2-0.896,2-2v-22.132c0-1.104-0.896-2-2-2
								h-23.729c-1.104,0-2,0.896-2,2V624.058z"/>
						</g>
						<g>
							<path fill="#FFFFFF" d="M543.436,624.058c0,1.104,0.896,2,2,2h41.091c1.104,0,2-0.896,2-2v-22.132c0-1.104-0.896-2-2-2
								h-41.091c-1.104,0-2,0.896-2,2V624.058z"/>
						</g>
					</g>
					<g>
						<g>
							<path fill="#FFFFFF" d="M602.582,654.366c0,1.104,0.896,2,2,2h23.729c1.104,0,2-0.896,2-2v-22.766c0-1.104-0.896-2-2-2
								h-23.729c-1.104,0-2,0.896-2,2V654.366z"/>
						</g>
						<g>
							<path fill="#FFFFFF" d="M634.272,654.366c0,1.104,0.896,2,2,2h23.729c1.104,0,2-0.896,2-2v-22.766c0-1.104-0.896-2-2-2
								h-23.729c-1.104,0-2,0.896-2,2V654.366z"/>
						</g>
						<g>
							<path fill="#FFFFFF" d="M665.082,654.366c0,1.104,0.896,2,2,2h23.729c1.104,0,2-0.896,2-2v-22.766c0-1.104-0.896-2-2-2
								h-23.729c-1.104,0-2,0.896-2,2V654.366z"/>
						</g>
						<g>
							<path fill="#FFFFFF" d="M696.771,654.366c0,1.104,0.896,2,2,2h23.73c1.104,0,2-0.896,2-2v-22.766c0-1.104-0.896-2-2-2h-23.73
								c-1.104,0-2,0.896-2,2V654.366z"/>
						</g>
						<g>
							<path fill="#FFFFFF" d="M728.022,654.366c0,1.104,0.896,2,2,2h23.729c1.104,0,2-0.896,2-2v-22.766c0-1.104-0.896-2-2-2
								h-23.729c-1.104,0-2,0.896-2,2V654.366z"/>
						</g>
						<g>
							<path fill="#FFFFFF" d="M759.712,654.366c0,1.104,0.896,2,2,2h23.729c1.104,0,2-0.896,2-2v-22.766c0-1.104-0.896-2-2-2
								h-23.729c-1.104,0-2,0.896-2,2V654.366z"/>
						</g>
						<g>
							<path fill="#FFFFFF" d="M790.521,654.366c0,1.104,0.896,2,2,2h23.729c1.104,0,2-0.896,2-2v-22.766c0-1.104-0.896-2-2-2
								h-23.729c-1.104,0-2,0.896-2,2V654.366z"/>
						</g>
						<g>
							<path fill="#FFFFFF" d="M822.212,654.366c0,1.104,0.896,2,2,2h23.731c1.104,0,2-0.896,2-2v-22.766c0-1.104-0.896-2-2-2
								h-23.731c-1.104,0-2,0.896-2,2V654.366z"/>
						</g>
						<g>
							<path fill="#FFFFFF" d="M853.021,654.366c0,1.104,0.896,2,2,2h23.73c1.104,0,2-0.896,2-2v-22.766c0-1.104-0.896-2-2-2h-23.73
								c-1.104,0-2,0.896-2,2V654.366z"/>
						</g>
						<g>
							<path fill="#FFFFFF" d="M884.713,654.366c0,1.104,0.896,2,2,2h23.73c1.104,0,2-0.896,2-2v-22.766c0-1.104-0.896-2-2-2h-23.73
								c-1.104,0-2,0.896-2,2V654.366z"/>
						</g>
						<g>
							<path fill="#FFFFFF" d="M915.523,654.366c0,1.104,0.896,2,2,2h23.729c1.104,0,2-0.896,2-2v-22.766c0-1.104-0.896-2-2-2
								h-23.729c-1.104,0-2,0.896-2,2V654.366z"/>
						</g>
						<g>
							<path fill="#FFFFFF" d="M947.045,654.049c0,1.104,0.896,2,2,2h44.635c1.104,0,2-0.896,2-2v-22.132c0-1.104-0.896-2-2-2
								h-44.635c-1.104,0-2,0.896-2,2V654.049z"/>
						</g>
						<g>
							<path fill="#FFFFFF" d="M543.436,654.049c0,1.104,0.896,2,2,2h50.787c1.104,0,2-0.896,2-2v-22.132c0-1.104-0.896-2-2-2
								h-50.787c-1.104,0-2,0.896-2,2V654.049z"/>
						</g>
					</g>
					<g>
						<g>
							<path fill="#FFFFFF" d="M618.646,684.481c0,1.104,0.896,2,2,2h23.729c1.104,0,2-0.896,2-2v-22.766c0-1.104-0.896-2-2-2
								h-23.729c-1.104,0-2,0.896-2,2V684.481z"/>
						</g>
						<g>
							<path fill="#FFFFFF" d="M650.337,684.481c0,1.104,0.896,2,2,2h23.729c1.104,0,2-0.896,2-2v-22.766c0-1.104-0.896-2-2-2
								h-23.729c-1.104,0-2,0.896-2,2V684.481z"/>
						</g>
						<g>
							<path fill="#FFFFFF" d="M681.146,684.481c0,1.104,0.896,2,2,2h23.729c1.104,0,2-0.896,2-2v-22.766c0-1.104-0.896-2-2-2
								h-23.729c-1.104,0-2,0.896-2,2V684.481z"/>
						</g>
						<g>
							<path fill="#FFFFFF" d="M712.837,684.481c0,1.104,0.896,2,2,2h23.729c1.104,0,2-0.896,2-2v-22.766c0-1.104-0.896-2-2-2
								h-23.729c-1.104,0-2,0.896-2,2V684.481z"/>
						</g>
						<g>
							<path fill="#FFFFFF" d="M744.087,684.481c0,1.104,0.896,2,2,2h23.729c1.104,0,2-0.896,2-2v-22.766c0-1.104-0.896-2-2-2
								h-23.729c-1.104,0-2,0.896-2,2V684.481z"/>
						</g>
						<g>
							<path fill="#FFFFFF" d="M775.776,684.481c0,1.104,0.896,2,2,2h23.729c1.104,0,2-0.896,2-2v-22.766c0-1.104-0.896-2-2-2
								h-23.729c-1.104,0-2,0.896-2,2V684.481z"/>
						</g>
						<g>
							<path fill="#FFFFFF" d="M806.586,684.481c0,1.104,0.896,2,2,2h23.729c1.104,0,2-0.896,2-2v-22.766c0-1.104-0.896-2-2-2
								h-23.729c-1.104,0-2,0.896-2,2V684.481z"/>
						</g>
						<g>
							<path fill="#FFFFFF" d="M838.276,684.481c0,1.104,0.896,2,2,2h23.729c1.104,0,2-0.896,2-2v-22.766c0-1.104-0.896-2-2-2
								h-23.729c-1.104,0-2,0.896-2,2V684.481z"/>
						</g>
						<g>
							<path fill="#FFFFFF" d="M869.088,684.481c0,1.104,0.896,2,2,2h23.729c1.104,0,2-0.896,2-2v-22.766c0-1.104-0.896-2-2-2
								h-23.729c-1.104,0-2,0.896-2,2V684.481z"/>
						</g>
						<g>
							<path fill="#FFFFFF" d="M900.775,684.481c0,1.104,0.896,2,2,2h23.73c1.104,0,2-0.896,2-2v-22.766c0-1.104-0.896-2-2-2h-23.73
								c-1.104,0-2,0.896-2,2V684.481z"/>
						</g>
						<g>
							<path fill="#FFFFFF" d="M932.74,684.164c0,1.104,0.896,2,2,2h58.939c1.104,0,2-0.896,2-2v-22.132c0-1.104-0.896-2-2-2H934.74
								c-1.104,0-2,0.896-2,2V684.164z"/>
						</g>
						<g>
							<path fill="#FFFFFF" d="M543.436,684.164c0,1.104,0.896,2,2,2h66.553c1.104,0,2-0.896,2-2v-22.132c0-1.104-0.896-2-2-2
								h-66.553c-1.104,0-2,0.896-2,2V684.164z"/>
						</g>
					</g>
					<g>
						<g>
							<path fill="#FFFFFF" d="M544.153,715.09c0,1.104,0.896,2,2,2h23.729c1.104,0,2-0.896,2-2v-22.766c0-1.104-0.896-2-2-2
								h-23.729c-1.104,0-2,0.896-2,2V715.09z"/>
						</g>
						<g>
							<path fill="#FFFFFF" d="M575.844,715.09c0,1.104,0.896,2,2,2h23.729c1.104,0,2-0.896,2-2v-22.766c0-1.104-0.896-2-2-2
								h-23.729c-1.104,0-2,0.896-2,2V715.09z"/>
						</g>
						<g>
							<path fill="#FFFFFF" d="M606.653,715.09c0,1.104,0.896,2,2,2h23.729c1.104,0,2-0.896,2-2v-22.766c0-1.104-0.896-2-2-2
								h-23.729c-1.104,0-2,0.896-2,2V715.09z"/>
						</g>
						<g>
							<path fill="#FFFFFF" d="M638.343,715.09c0,1.104,0.896,2,2,2h23.73c1.104,0,2-0.896,2-2v-22.766c0-1.104-0.896-2-2-2h-23.73
								c-1.104,0-2,0.896-2,2V715.09z"/>
						</g>
						<g>
							<path fill="#FFFFFF" d="M669.991,715.09c0,1.104,0.896,2,2,2h160.324c1.104,0,2-0.896,2-2v-22.766c0-1.104-0.896-2-2-2
								H671.991c-1.104,0-2,0.896-2,2V715.09z"/>
						</g>
						<g>
							<path fill="#FFFFFF" d="M838.276,715.09c0,1.104,0.896,2,2,2h23.729c1.104,0,2-0.896,2-2v-22.766c0-1.104-0.896-2-2-2
								h-23.729c-1.104,0-2,0.896-2,2V715.09z"/>
						</g>
						<g>
							<path fill="#FFFFFF" d="M869.088,715.09c0,1.104,0.896,2,2,2h23.729c1.104,0,2-0.896,2-2v-22.766c0-1.104-0.896-2-2-2
								h-23.729c-1.104,0-2,0.896-2,2V715.09z"/>
						</g>
						<g>
							<path fill="#FFFFFF" d="M937.094,702.619c0,0.553,0.447,1,1,1h24.031c0.553,0,1-0.447,1-1v-10.434c0-0.553-0.447-1-1-1
								h-24.031c-0.553,0-1,0.447-1,1V702.619z"/>
						</g>
						<g>
							<path fill="#FFFFFF" d="M937.094,716.09c0,0.553,0.447,1,1,1h24.031c0.553,0,1-0.447,1-1v-10.433c0-0.553-0.447-1-1-1
								h-24.031c-0.553,0-1,0.447-1,1V716.09z"/>
						</g>
						<g>
							<path fill="#FFFFFF" d="M968.115,716.09c0,0.553,0.447,1,1,1h24.029c0.553,0,1-0.447,1-1v-10.433c0-0.553-0.447-1-1-1
								h-24.029c-0.553,0-1,0.447-1,1V716.09z"/>
						</g>
						<g>
							<path fill="#FFFFFF" d="M905.494,716.09c0,0.553,0.447,1,1,1h24.031c0.553,0,1-0.447,1-1v-10.433c0-0.553-0.447-1-1-1
								h-24.031c-0.553,0-1,0.447-1,1V716.09z"/>
						</g>
					</g>
				</g>
			</g>
			<g id="Mouse">
				<g>
					<path fill="#EDEDED" d="M1039.561,648.635c0,22.092,17.908,40,40,40s40-17.908,40-40V598.7c0-22.092-17.908-40-40-40
						s-40,17.908-40,40V648.635z"/>
				</g>
				<path fill="#B5B5B6" d="M1079.561,558.7v129.935c22.092,0,40-17.908,40-40V598.7
					C1119.561,576.608,1101.652,558.7,1079.561,558.7z"/>
				<circle fill="#5B5C5C" cx="1079.561" cy="592.354" r="6.563"/>
			</g>
		</g>
		<g id="Cup">
			<circle fill="#96201F" cx="1268.226" cy="634.463" r="60.497"/>
			<path fill="#7C1617" d="M1225.563,591.57c0,0,88.551-1.456,94.051,78.544c0,0,24.87-66.352-15.939-84.676
				C1303.674,585.438,1264.763,555.026,1225.563,591.57z"/>
			<circle fill="none" stroke="#FFFFFF" stroke-width="14" stroke-miterlimit="10" cx="1268.226" cy="634.463" r="60.497"/>
			<path fill="#FFFFFF" d="M1325.313,714.82c1.574,2.731,0.134,6.511-3.217,8.439l0,0c-3.351,1.929-7.342,1.278-8.915-1.455
				l-18.922-32.868c-1.573-2.731-0.133-6.51,3.218-8.439l0,0c3.351-1.929,7.342-1.277,8.914,1.455L1325.313,714.82z"/>
		</g>
	</g>
</g>
</svg>
