<?xml version="1.0" encoding="utf-8"?>
<!-- Generator: Adobe Illustrator 16.0.0, SVG Export Plug-In . SVG Version: 6.00 Build 0)  -->
<!DOCTYPE svg PUBLIC "-//W3C//DTD SVG 1.1//EN" "http://www.w3.org/Graphics/SVG/1.1/DTD/svg11.dtd">
<svg version="1.1" id="Layer_1" xmlns="http://www.w3.org/2000/svg" xmlns:xlink="http://www.w3.org/1999/xlink" x="0px" y="0px"
	 width="83.82px" height="83.82px" viewBox="0 0 83.82 83.82" enable-background="new 0 0 83.82 83.82" xml:space="preserve">
<path fill="#FFFFFF" d="M41.91,0C18.764,0,0,18.764,0,41.91s18.764,41.91,41.91,41.91c23.146,0,41.91-18.764,41.91-41.91
	S65.057,0,41.91,0z M66.799,66.799c-3.235,3.235-7,5.773-11.19,7.546c-1.063,0.45-2.146,0.847-3.241,1.187V69.25
	c0-3.302-1.132-5.729-3.397-7.284c1.418-0.138,2.722-0.328,3.909-0.573c1.187-0.245,2.441-0.601,3.765-1.065
	c1.323-0.464,2.511-1.017,3.561-1.657c1.05-0.642,2.061-1.474,3.029-2.497c0.968-1.022,1.779-2.182,2.434-3.478
	s1.175-2.853,1.556-4.666c0.382-1.814,0.572-3.813,0.572-5.996c0-4.229-1.377-7.83-4.132-10.805
	c1.255-3.274,1.117-6.835-0.41-10.683l-1.023-0.122c-0.709-0.081-1.985,0.218-3.827,0.901c-1.842,0.682-3.907,1.8-6.199,3.355
	c-3.248-0.9-6.617-1.35-10.11-1.35c-3.519,0-6.875,0.449-10.068,1.35c-1.446-0.982-2.818-1.793-4.113-2.435
	c-1.296-0.642-2.333-1.078-3.111-1.311c-0.778-0.231-1.5-0.375-2.169-0.43c-0.668-0.056-1.098-0.067-1.289-0.042
	c-0.19,0.027-0.328,0.055-0.409,0.082c-1.528,3.875-1.665,7.437-0.409,10.683c-2.756,2.974-4.133,6.575-4.133,10.805
	c0,2.183,0.19,4.182,0.573,5.996c0.382,1.813,0.901,3.369,1.555,4.666c0.654,1.296,1.467,2.455,2.435,3.478
	c0.969,1.023,1.979,1.855,3.029,2.497c1.05,0.643,2.237,1.194,3.561,1.657c1.323,0.465,2.578,0.818,3.765,1.065
	c1.187,0.245,2.49,0.437,3.909,0.573c-2.237,1.527-3.356,3.956-3.356,7.284v6.403c-1.236-0.367-2.454-0.802-3.65-1.309
	c-4.19-1.772-7.956-4.311-11.19-7.546c-3.235-3.234-5.773-7-7.547-11.19c-1.833-4.334-2.762-8.943-2.762-13.698
	s0.93-9.364,2.763-13.698c1.773-4.19,4.312-7.956,7.546-11.19c3.234-3.234,7-5.773,11.19-7.546
	c4.335-1.834,8.943-2.764,13.699-2.764c4.755,0,9.364,0.93,13.698,2.764c4.191,1.772,7.955,4.312,11.19,7.546
	c3.234,3.234,5.773,7,7.546,11.19c1.833,4.336,2.763,8.943,2.763,13.698s-0.93,9.364-2.764,13.698
	C72.571,59.799,70.032,63.564,66.799,66.799L66.799,66.799z"/>
</svg>
