<?xml version="1.0" encoding="utf-8"?>
<!-- Generator: Adobe Illustrator 16.0.0, SVG Export Plug-In . SVG Version: 6.00 Build 0)  -->
<!DOCTYPE svg PUBLIC "-//W3C//DTD SVG 1.1//EN" "http://www.w3.org/Graphics/SVG/1.1/DTD/svg11.dtd">
<svg version="1.1" id="Layer_1" xmlns="http://www.w3.org/2000/svg" xmlns:xlink="http://www.w3.org/1999/xlink" x="0px" y="0px"
	 width="83.357px" height="83.356px" viewBox="0 0 83.357 83.356" enable-background="new 0 0 83.357 83.356" xml:space="preserve">
<path fill="#FFFFFF" d="M69.355,0H14.002C6.301,0,0,6.301,0,14.001v55.354c0,7.7,6.301,14.001,14.002,14.001h55.354
	c7.701,0,14.002-6.301,14.002-14.001V14.001C83.357,6.301,77.057,0,69.355,0z M31.26,67.728H20.84V31.259h10.42V67.728z
	 M26.049,26.05c-2.877,0-5.209-2.334-5.209-5.211c0-2.876,2.332-5.21,5.209-5.21s5.211,2.334,5.211,5.21
	C31.26,23.716,28.926,26.05,26.049,26.05z M67.729,67.728h-10.42V46.889c0-2.878-2.334-5.211-5.211-5.211s-5.209,2.333-5.209,5.211
	v20.839h-10.42V31.259h10.42v6.47c2.148-2.951,5.436-6.47,9.117-6.47c6.475,0,11.723,5.832,11.723,13.023V67.728L67.729,67.728z"/>
</svg>
