<?xml version="1.0" encoding="utf-8"?>
<!-- Generator: Adobe Illustrator 16.0.0, SVG Export Plug-In . SVG Version: 6.00 Build 0)  -->
<!DOCTYPE svg PUBLIC "-//W3C//DTD SVG 1.1//EN" "http://www.w3.org/Graphics/SVG/1.1/DTD/svg11.dtd">
<svg version="1.1" id="Layer_1" xmlns="http://www.w3.org/2000/svg" xmlns:xlink="http://www.w3.org/1999/xlink" x="0px" y="0px"
	 width="400px" height="400px" viewBox="0 0 400 400" enable-background="new 0 0 400 400" xml:space="preserve">
<g>
	<path fill="#FFFFFF" d="M316.473,150.685c26.991,64.188-3.154,138.102-67.342,165.104c-64.188,27.001-138.107-3.155-165.104-67.343
		c-26.996-64.187,3.155-138.107,67.342-165.103c12.853-5.404,26.096-8.525,39.265-9.523l3.393,44.382
		c-8.52,0.652-17.093,2.663-25.409,6.159c-41.534,17.474-61.042,65.297-43.574,106.841c17.474,41.528,65.297,61.032,106.831,43.563
		c34.431-14.479,53.721-49.806,49.368-85.127l-79.202,33.307l-17.254-41.013l121.266-51.003
		C310.026,137.091,313.532,143.679,316.473,150.685z"/>
	<path fill="#FFFFFF" d="M400.349,192.335C396.464,85.173,308.352-0.5,200.25-0.5C89.66-0.5,0,89.16,0,199.75
		c0,110.595,89.66,200.254,200.25,200.254c54.957,0,104.732-22.142,140.916-58.004v58.004h59.339V199.75
		C400.505,197.262,400.446,194.789,400.349,192.335z M200.25,340.666c-77.824,0-140.916-63.097-140.916-140.916
		c0-77.824,63.092-140.916,140.916-140.916c77.819,0,140.916,63.092,140.916,140.916
		C341.166,277.569,278.069,340.666,200.25,340.666z"/>
</g>
</svg>
