<?xml version="1.0" encoding="utf-8"?>
<!-- Generator: Adobe Illustrator 16.0.0, SVG Export Plug-In . SVG Version: 6.00 Build 0)  -->
<!DOCTYPE svg PUBLIC "-//W3C//DTD SVG 1.1//EN" "http://www.w3.org/Graphics/SVG/1.1/DTD/svg11.dtd">
<svg version="1.1" id="Layer_1" xmlns="http://www.w3.org/2000/svg" xmlns:xlink="http://www.w3.org/1999/xlink" x="0px" y="0px"
	 width="100.936px" height="82.513px" viewBox="0 0 100.936 82.513" enable-background="new 0 0 100.936 82.513"
	 xml:space="preserve">
<path fill="#FFFFFF" d="M100.936,9.768c-3.715,1.656-7.703,2.775-11.895,3.279c4.275-2.578,7.559-6.66,9.107-11.524
	c-4.002,2.388-8.434,4.12-13.15,5.056C81.221,2.529,75.838,0,69.883,0C58.445,0,49.172,9.324,49.172,20.828
	c0,1.632,0.184,3.223,0.535,4.747C32.498,24.706,17.24,16.413,7.025,3.811c-1.781,3.078-2.805,6.656-2.805,10.474
	c0,7.227,3.656,13.603,9.213,17.337c-3.395-0.106-6.588-1.043-9.377-2.604c-0.004,0.087-0.004,0.174-0.004,0.262
	c0,10.094,7.139,18.512,16.613,20.426c-1.738,0.478-3.566,0.73-5.457,0.73c-1.334,0-2.631-0.131-3.896-0.373
	c2.637,8.275,10.285,14.297,19.346,14.465c-7.088,5.587-16.018,8.916-25.719,8.916c-1.672,0-3.32-0.098-4.939-0.289
	c9.164,5.91,20.049,9.358,31.744,9.358c38.09,0,58.918-31.739,58.918-59.268c0-0.902-0.02-1.799-0.061-2.694
	C94.646,17.612,98.158,13.942,100.936,9.768z"/>
</svg>
